<?xml version="1.0" encoding="utf-8"?>
<!-- Generator: Adobe Illustrator 16.0.0, SVG Export Plug-In . SVG Version: 6.00 Build 0)  -->
<!DOCTYPE svg PUBLIC "-//W3C//DTD SVG 1.1//EN" "http://www.w3.org/Graphics/SVG/1.1/DTD/svg11.dtd">
<svg version="1.1" id="Layer_1" xmlns="http://www.w3.org/2000/svg" xmlns:xlink="http://www.w3.org/1999/xlink" x="0px" y="0px"
	 width="358.5px" height="37.75px" viewBox="0 0.5 358.5 37.75" enable-background="new 0 0.5 358.5 37.75" xml:space="preserve">
<g>
	<path fill="#1D1D1B" d="M14.959,6.007l0.553,5.354h-0.104c-1.554-2.521-3.8-4.215-6.599-4.215c-2.521,0-4.768,1.348-4.768,3.974
		c0,2.245,2.004,3.04,4.077,3.627l1.589,0.449c2.314,0.656,4.008,1.312,5.182,2.349c1.209,1.071,1.936,2.66,1.936,4.664
		c0,5.562-4.215,8.015-9.328,8.015c-2.66,0-5.285-0.553-7.496-1.382v-5.907h0.104c1.451,2.452,3.938,5.112,7.738,5.112
		c2.937,0,5.147-1.762,5.147-4.422c0-2.383-1.796-3.454-4.249-4.11l-1.9-0.519c-3.04-0.829-6.46-2.245-6.46-6.875
		c0-4.836,3.973-7.15,8.603-7.15C10.882,4.971,13.404,5.385,14.959,6.007z"/>
	<path fill="#1D1D1B" d="M36.1,11.085c-0.864,0.449-1.451,1.278-2.073,2.66L26.6,30.154h-0.139l-6.979-16.063
		c-0.691-1.589-1.209-2.591-2.143-3.006v-0.104h6.875v0.104c-1.07,0.38-1.105,1.244-0.483,2.66l3.766,8.706l3.835-8.603
		c0.69-1.555,0.449-2.314-0.381-2.764v-0.104H36.1V11.085z"/>
	<path fill="#1D1D1B" d="M46.496,5.488c7.22,0,13.887,3.489,13.887,11.712c0,7.703-5.424,12.471-12.678,12.471H36.754v-0.104
		c0.829-0.312,1.831-1.312,1.831-2.591V8.184c0-1.278-1.002-2.28-1.831-2.591V5.488H46.496z M55.72,18.063
		c0-6.287-3.454-10.398-9.569-10.398c-1.416,0-2.453,0.104-3.281,0.312v17.342c0,1.727,1.174,2.176,3.661,2.176
		C51.816,27.494,55.72,25.249,55.72,18.063z"/>
	<path fill="#1D1D1B" d="M92.369,5.593c-0.829,0.311-1.865,1.312-1.865,2.591V30.5H90.4L74.302,11.604l-0.034,15.373
		c0,1.278,0.967,2.211,1.796,2.591v0.104h-6.425v-0.104c0.828-0.38,1.865-1.312,1.865-2.591V9.703c0-2.004-1.244-3.316-2.66-4.11
		V5.488h6.045L87.74,20.585V8.184c0-1.278-1.037-2.28-1.865-2.591V5.488h6.494V5.593z"/>
	<path fill="#1D1D1B" d="M112.922,26.562c0.656,1.589,1.348,2.557,2.592,3.006v0.104h-7.601v-0.104
		c0.897-0.415,1.209-1.348,0.656-2.729l-1.45-3.627h-7.877l-1.52,3.8c-0.553,1.417-0.174,2.107,0.725,2.557v0.104h-5.873v-0.104
		c1.071-0.415,1.832-1.451,2.314-2.626l9.051-21.971h0.174L112.922,26.562z M97.618,3.623c0-1.243,1.002-2.245,2.28-2.245
		c1.277,0,2.279,1.002,2.279,2.245c0,1.244-1.002,2.246-2.279,2.246C98.62,5.869,97.618,4.867,97.618,3.623z M103.18,13.469
		l-3.005,7.462h6.011L103.18,13.469z M105.979,3.623c0-1.243,1.002-2.245,2.279-2.245c1.279,0,2.281,1.002,2.281,2.245
		c0,1.244-1.002,2.246-2.281,2.246C106.98,5.869,105.979,4.867,105.979,3.623z"/>
	<path fill="#1D1D1B" d="M134.546,25.905c1.969,2.418,3.246,3.282,4.111,3.559v0.104c-0.795,0.241-1.9,0.414-2.938,0.414
		c-2.314,0-3.695-0.621-5.424-2.832l-7.22-9.293v9.12c0,1.278,1.037,2.279,1.866,2.591v0.104h-8.015v-0.104
		c0.829-0.312,1.865-1.312,1.865-2.591V8.184c0-1.278-1.036-2.28-1.865-2.591V5.488h10.226c5.043,0,7.807,2.868,7.807,6.599
		c0,3.628-2.832,6.08-6.426,6.356L134.546,25.905z M123.076,16.578c0.553,0.104,1.383,0.173,2.281,0.173
		c3.142,0,5.285-1.175,5.285-4.561c0-3.593-2.246-4.595-5.492-4.595c-0.623,0-1.625,0.069-2.074,0.173V16.578z"/>
	<path fill="#1D1D1B" d="M147.396,5.593c-0.83,0.311-1.867,1.312-1.867,2.591v18.793c0,1.278,1.037,2.279,1.867,2.591v0.104h-8.016
		v-0.104c0.83-0.312,1.865-1.312,1.865-2.591V8.184c0-1.278-1.035-2.28-1.865-2.591V5.488h8.016V5.593z"/>
	<path fill="#1D1D1B" d="M173.545,5.593c-0.828,0.311-1.865,1.312-1.865,2.591V30.5h-0.104l-16.098-18.896l-0.035,15.373
		c0,1.278,0.967,2.211,1.797,2.591v0.104h-6.426v-0.104c0.828-0.38,1.865-1.312,1.865-2.591V9.703c0-2.004-1.244-3.316-2.66-4.11
		V5.488h6.045l12.852,15.097V8.184c0-1.278-1.037-2.28-1.865-2.591V5.488h6.494V5.593z"/>
	<path fill="#1D1D1B" d="M198.002,6.422v5.665h-0.139c-1.312-3.144-5.217-4.836-8.049-4.836c-5.838,0-9.121,4.56-9.121,10.709
		c0,5.597,3.49,9.88,8.604,9.88c2.867,0,4.766-1.14,4.766-2.349V22.07c0-1.277-1.139-2.279-1.898-2.591v-0.104h7.945v0.104
		c-0.83,0.312-1.762,1.313-1.762,2.591v6.012c-2.867,1.312-5.84,2.211-9.432,2.211c-7.117,0-12.885-5.666-12.885-12.609
		c0-7.704,6.113-12.713,13.68-12.713C192.439,4.971,195.721,5.593,198.002,6.422z"/>
	<path fill="#1D1D1B" d="M217.656,6.007l0.553,5.354h-0.104c-1.555-2.521-3.799-4.215-6.598-4.215c-2.521,0-4.768,1.348-4.768,3.974
		c0,2.245,2.004,3.04,4.076,3.627l1.59,0.449c2.314,0.656,4.006,1.312,5.182,2.349c1.209,1.071,1.934,2.66,1.934,4.664
		c0,5.562-4.215,8.015-9.326,8.015c-2.66,0-5.285-0.553-7.496-1.382v-5.907h0.104c1.449,2.452,3.938,5.112,7.738,5.112
		c2.936,0,5.146-1.762,5.146-4.422c0-2.383-1.797-3.454-4.25-4.11l-1.898-0.519c-3.041-0.829-6.461-2.245-6.461-6.875
		c0-4.836,3.973-7.15,8.602-7.15C213.58,4.971,216.102,5.385,217.656,6.007z"/>
	<path fill="#1D1D1B" d="M222.076,29.671v-0.104c0.83-0.312,1.865-1.312,1.865-2.591V8.184c0-1.278-1.035-2.28-1.865-2.591V5.488
		h8.016v0.104c-0.83,0.311-1.867,1.312-1.867,2.591v17.031c0,2.003,0.898,2.452,4.008,2.452c2.834,0,4.596-1.036,5.734-3.627h0.104
		l-0.689,5.631H222.076z"/>
	<path fill="#1D1D1B" d="M248.26,5.593c-0.828,0.311-1.865,1.312-1.865,2.591v18.793c0,1.278,1.037,2.279,1.865,2.591v0.104h-8.014
		v-0.104c0.828-0.312,1.865-1.312,1.865-2.591V8.184c0-1.278-1.037-2.28-1.865-2.591V5.488h8.014V5.593z"/>
	<path fill="#1D1D1B" d="M272.822,5.593c-1.279,0.414-1.936,1.14-2.557,2.625l-9.293,22.179h-0.139L251.99,8.598
		c-0.656-1.589-1.176-2.557-2.246-3.005V5.488h8.223v0.104c-1.312,0.345-2.072,1.278-1.348,3.074l5.182,13.059l5.424-13.301
		c0.691-1.692,0.104-2.452-0.967-2.832V5.488h6.564V5.593z"/>
</g>
</svg>
