<?xml version="1.0" encoding="utf-8"?>
<!-- Generator: Adobe Illustrator 16.0.0, SVG Export Plug-In . SVG Version: 6.00 Build 0)  -->
<!DOCTYPE svg PUBLIC "-//W3C//DTD SVG 1.1//EN" "http://www.w3.org/Graphics/SVG/1.1/DTD/svg11.dtd">
<svg version="1.1" id="Layer_1" xmlns="http://www.w3.org/2000/svg" xmlns:xlink="http://www.w3.org/1999/xlink" x="0px" y="0px"
	 width="102px" height="118px" viewBox="0 0 102 118" enable-background="new 0 0 102 118" xml:space="preserve">
<path opacity="0.7" d="M96.051,49.507c-0.518,2.127-6.672,5.662-8.797,5.164c-0.958-0.225-1.552-0.869-1.924-1.69
	c-1.398-3.095-2.68-6.222-4.32-9.228c-1.27-2.325,0.082-4.763,2.289-6.075c3.367-2.001,6.872-1.186,10.203,0.33
	c2.863,1.302,3.488,3.809,3.404,6.711C96.628,46.316,96.434,47.935,96.051,49.507z M96.809,57.117
	c0.727,5.082-0.951,9.973-1.137,14.986c-0.027,1.725-0.569,3.947,1.74,4.403c1.97,0.39,2.471-1.811,3.221-3.13
	c3.008-5.287,0.169-10.582-0.191-15.873c-0.034-0.487-0.676-0.939-1.049-1.396c-0.488-0.599-1.114-1.032-1.896-0.818
	C96.528,55.554,96.713,56.442,96.809,57.117z M96.004,33.606c2.189-7.884,1.115-10.574-3.854-11.188
	C93.34,25.872,94.511,29.272,96.004,33.606z M100.942,93.549c0.361,1.13-0.656,1.562-1.486,1.822
	c-3.295,1.033-5.479,3.348-7.488,6.016c-3.122,4.146-1.523,9.068-2.472,13.561v0.001c-0.973,0.802,0.269,3.429-2.36,2.862
	c-8.726-1.883-17.432-0.734-26.14,0.162c-1.85-2.107-3.6-4.312-5.568-6.303c-6.537-6.61-13.535-12.381-23.306-13.604
	c-3.728-0.467-5.937,0.379-6.744,4.278c-0.37,1.788-0.713,4.45-2.945,4.411c-2.329-0.041-3.842-2.354-4.366-4.518
	c-0.718-2.976-2.415-4.904-4.804-6.6C6.885,91.12,3.305,85.275,4.823,77.092c0.267-1.438-0.032-2.863-0.927-4.221
	C1.834,69.744,0.848,66.161,0,62.548c1.352-4.971,0.455-10.446,3.318-15.07c1.812-2.924,4.767-5.198,3.974-9.417
	c-0.346-1.84,1.391-3.502,2.765-4.901c0.251-0.256,0.48-0.496,0.697-0.672c0.372-0.021,0.762,0,1.17,0.062
	c0.163,0.203,0.33,0.508,0.507,0.938c1.34,3.271,5.244,1.643,7.671,3.421c1.102,0.807,6.932-8.302,6.53-10.773
	c-0.659,0.536-1.258,0.938-1.751,1.443c-0.88,0.902-1.503,2.984-2.784,2.302c-1.672-0.891-3.435-2.553-4.019-4.271
	c-0.555-1.634,1.87-2.195,3.119-3.064c0.601-0.417,1.309-0.819,2.014-0.924c2.791-0.416,3.703-1.952,4.12-4.754
	c0.64-4.307,3.339-7.215,7.922-7.863c1.016-0.144,2.059,0.007,2.664-1.171c1.917-3.733,5.546-5.569,8.807-7.807
	c0.298,0,0.595,0,0.893,0c0.141,1.228,3.781,0.41,1.733,2.867c-2.824,3.39,0.193,2.502,1.924,2.832
	c2.886,0.55,6.055,0.733,8.506,2.125c2.491,1.414,4.491,1.337,6.919,0.778c-0.707-2.714-1.637-4.911-3.861-6.592
	c0.018-0.029,0.037-0.059,0.059-0.088C73.478,1.108,76.21,12.134,84.071,15.079C81.738,9.368,79.059,4.056,74.41,0.027
	c1.488,0,2.977,0,4.465,0c6.674,3.292,9.07,10.477,13.968,15.39c0.704,0.707,1.091,1.743,1.575,2.652
	c0.364,0.685,0.54,1.455-0.226,1.97c-0.753,0.506-1.369-0.021-1.967-0.473c-1.485-1.125-1.839-3.501-4.202-3.778
	c-0.762,1.354,0.086,2.597,0.188,3.873c0.125,1.56-0.479,2.942-2.227,2.173c-4.467-1.966-9.54-1.865-13.824-4.562
	c-4.941-3.109-10.333-5.201-16.371-4.857c-8.008,0.456-13.835,5.51-13.479,11.694c0.017,0.758-0.497,1.944,0.635,2.014
	c0.949,0.06,1.166-1.052,1.125-1.966c0.815-1.221,1.473-2.771,3.297-2.529c2.002,0.266,1.391,2.089,1.398,3.197
	c0.011,1.72,2.161,2.263,1.925,3.767c-0.359,2.288,0.556,2.149,2.167,1.562c1.717-0.625,3.844-2.411,5.216-0.447
	c1.179,1.687-1.371,2.934-2.096,4.461c-0.154,0.324-0.08,0.757-0.15,1.625c6.313-3.172,11.542-2.124,17.084,1.852
	c2.809,2.015,2.299,4.916,4.097,6.759c2.89,2.963,3.954,6.413,4.31,10.409c0.267,3.008,1.588,5.508,5.445,4.566
	c0.645-0.157,0.943-0.09,1.32,0.586c1.659,2.98,0.414,6.294-2.945,6.959c-1.775,0.352-2.483,1.215-2.898,2.822
	c-0.438,1.691-1.135,3.315-1.744,5.046c2.57,0.815,6.35-0.116,7.611,2.862c0.44,0.227,0.947,0.488,1.412,0.758
	c0.092-0.678,0.152-1.356,0.402-2.035c0.201-0.537,0.604-1.274,1.207-0.604c0.27,0.336,0,1.543,0,1.946
	c-0.066,0.806,0.336,3.355-0.604,3.489c-0.445,0.041-1.403-0.627-1.977-1.281c-0.004-0.002-0.009-0.004-0.014-0.006
	c0-0.004,0-0.008,0-0.012c-0.014-0.017-0.028-0.032-0.041-0.048c-0.256-0.108-0.513-0.233-0.764-0.364
	c-2.996-0.828-6.061-1.186-9.171-1.188c-1.374,0-3.044,0.24-3.108,1.774c-0.067,1.569,1.732,1.25,2.814,1.42
	c2.194,0.344,4.475,0.31,6.602,0.876c2.458,0.654,3.182,2.803,2.375,4.961c-0.81,2.166-2.711,1.311-4.139,0.56
	c-2.243-1.179-4.645-1.3-6.949-0.847c-3.212,0.633-4.658,3.07-4.453,6.203c0.213,3.263,2.694,3.595,5.225,3.183
	c1.816-0.296,3.721-0.41,5.272,0.241c3.165,1.329,5.021-0.209,6.959-2.246c1.186-1.244,1.704-3.088,4.02-4.148
	c-2.032,5.007,0.78,3.955,3.343,3.249c0.715-0.197,1.427-0.447,2.156-0.534C99.479,92.908,100.566,92.375,100.942,93.549z
	 M31.111,82.887c-0.805-2.818-5.033-5.436-6.442-8.656v0.139c0-0.001,0-0.002-0.001-0.003c-0.005-1.595-0.206-3.379-0.603-4.968
	c-0.207,0.908-0.26,2.005-0.168,3.174c-0.749,1.319-3.739,0.702-2.868,3.302c0.902,2.692,2.694,3.714,5.302,3.977
	C27.524,81.59,29.13,82.813,31.111,82.887z M57.15,45.306h0.133c0.021-0.084,0.051-0.162,0.077-0.242
	c1.222-1.337,3.108-2.196,4.755-2.576c-1.805,0-4.102,0.623-4.755,2.576C57.288,45.143,57.217,45.223,57.15,45.306z M67.551,99.598
	c-1.902-1.902-4.121-3.275-6.044-5.042c-0.78-2.736-1.989-3.858-4.587-3.493c-3.07,0.432-6.165,0.699-9.249,1.037
	c-1.119-0.01-2.049,0.24-2.476,1.652c1.988,0.041,3.693,0.227,5.269-0.665c2.659,0.034,5.788-0.56,8.531,0.494
	C60.457,95.76,65.861,99.766,67.551,99.598z M68.067,51.921c-0.847,0.022-1.702,0.081-2.549,0.117
	c-2.421,0.767-5.168,0.44-7.62-0.184l0.295-0.02c-0.303-0.084-0.528-0.194-0.641-0.338c0.703-0.24,1.521-0.262,2.351-0.32
	c-1.169-0.637-2.2-1.701-3.011-3.456c-0.113,3.471-2.023,7.592,1.477,9.151c3.225,1.438,3.82,2.512,1.984,5.218
	c4.536,1.4,8.789-0.537,10.683-4.688C71.742,55.856,69.683,51.877,68.067,51.921z"/>
</svg>
